Coordinates
version=1
nRows=54
nColumns=12
inDegrees=yes

Units are S.I. units (second, meters, Newtons, ...)
Angles are in degrees

endheader
time	SC_y	SC_z	SC_x	AC_y	AC_z	AC_x	GH_y	GH_z	GH_yy	EL_x	PS_y
       0.0              -30.99          38.69          70.36          35.21          -5.56          2.672         -14.43          43.85          178.4          17.48          101.1
  0.002601              -30.99          38.69          70.36          35.21          -5.56           2.67         -14.42          43.85          178.4          17.49          101.1
  0.005201              -30.99          38.69          70.36          35.21          -5.56          2.668         -14.41          43.84          178.4          17.49          101.1
  0.007802              -30.98          38.68          70.37          35.22          -5.56          2.666         -14.39          43.83          178.4           17.5          101.1
    0.0104              -30.98          38.68          70.37          35.22         -5.561          2.664         -14.38          43.82          178.4          17.51          101.1
     0.013              -30.98          38.68          70.37          35.22         -5.561          2.661         -14.37          43.81          178.4          17.52          101.1
    0.0156              -30.97          38.68          70.37          35.22         -5.561          2.659         -14.36           43.8          178.4          17.53          101.1
    0.0182              -30.97          38.67          70.37          35.23         -5.561          2.656         -14.34          43.79          178.3          17.54          101.1
   0.02081              -30.97          38.67          70.38          35.23         -5.562          2.653         -14.33          43.77          178.3          17.55          101.1
   0.02341              -30.96          38.67          70.38          35.23         -5.562           2.65         -14.31          43.76          178.3          17.56          101.1
   0.02601              -30.96          38.67          70.38          35.24         -5.562          2.647         -14.29          43.75          178.3          17.57          101.1
   0.02861              -30.95          38.66          70.39          35.24         -5.563          2.643         -14.27          43.73          178.3          17.58          101.1
   0.03121              -30.95          38.66          70.39          35.25         -5.563           2.64         -14.25          43.71          178.3           17.6          101.1
   0.03381              -30.94          38.66          70.39          35.25         -5.563          2.635         -14.23           43.7          178.3          17.61          101.1
   0.03641              -30.93          38.65           70.4          35.26         -5.564          2.631          -14.2          43.68          178.3          17.63          101.1
   0.03901              -30.93          38.65           70.4          35.26         -5.564          2.626         -14.18          43.65          178.3          17.64          101.1
   0.04161              -30.92          38.64          70.41          35.27         -5.565          2.621         -14.15          43.63          178.3          17.66          101.1
   0.04421              -30.91          38.64          70.41          35.28         -5.565          2.615         -14.12          43.61          178.3          17.68          101.1
   0.04681               -30.9          38.63          70.42          35.29         -5.566          2.609         -14.08          43.58          178.3          17.71          101.1
   0.04941              -30.89          38.63          70.43          35.29         -5.567          2.602         -14.05          43.55          178.3          17.73          101.1
   0.05201              -30.88          38.62          70.43           35.3         -5.567          2.594         -14.01          43.52          178.3          17.76          101.1
   0.05461              -30.87          38.61          70.44          35.31         -5.568          2.586         -13.96          43.48          178.3          17.79          101.1
   0.05722              -30.85          38.61          70.45          35.32         -5.569          2.577         -13.91          43.44          178.3          17.82          101.1
   0.05982              -30.84           38.6          70.46          35.34          -5.57          2.567         -13.86           43.4          178.3          17.86          101.1
   0.06242              -30.82          38.59          70.47          35.35         -5.571          2.555         -13.79          43.35          178.3           17.9          101.1
   0.06502               -30.8          38.58          70.48          35.37         -5.573          2.543         -13.73          43.29          178.3          17.94          101.1
   0.06762              -30.78          38.56           70.5          35.38         -5.574          2.529         -13.65          43.23          178.3           18.0          101.1
   0.07022              -30.76          38.55          70.51           35.4         -5.575          2.513         -13.56          43.16          178.3          18.05          101.1
   0.07282              -30.73          38.53          70.53          35.43         -5.577          2.495         -13.47          43.08          178.2          18.12          101.1
   0.07542               -30.7          38.52          70.55          35.45         -5.579          2.474         -13.35          42.99          178.2          18.19          101.1
   0.07802              -30.66           38.5          70.57          35.48         -5.582          2.451         -13.23          42.89          178.2          18.27          101.1
   0.08062              -30.62          38.47           70.6          35.51         -5.584          2.425         -13.08          42.77          178.2          18.37          101.1
   0.08322              -30.58          38.44          70.63          35.55         -5.587          2.394         -12.92          42.64          178.2          18.48          101.2
   0.08582              -30.53          38.41          70.66          35.59         -5.591          2.358         -12.72          42.48          178.1          18.61          101.2
   0.08842              -30.46          38.38           70.7          35.64         -5.595          2.316         -12.49           42.3          178.1          18.76          101.2
   0.09102              -30.39          38.33          70.75           35.7           -5.6          2.267         -12.23          42.08          178.1          18.94          101.2
   0.09363               -30.3          38.28          70.81          35.78         -5.606          2.208         -11.91          41.82          178.0          19.15          101.2
   0.09623               -30.2          38.22          70.88          35.86         -5.613          2.137         -11.53          41.52          178.0           19.4          101.2
   0.09883              -30.07          38.15          70.96          35.97         -5.621          2.052         -11.06          41.14          177.9          19.71          101.3
    0.1014              -29.91          38.05          71.06          36.09         -5.631          1.948          -10.5          40.69          177.9          20.08          101.3
     0.104              -29.72          37.94          71.19          36.25         -5.644           1.82         -9.802          40.13          177.8          20.54          101.3
    0.1066              -29.48           37.8          71.34          36.45          -5.66           1.66         -8.933          39.43          177.7          21.12          101.4
    0.1092              -29.18          37.63          71.54           36.7          -5.68          1.458         -7.838          38.55          177.5          21.85          101.5
    0.1118               -28.8           37.4          71.78          37.01         -5.705          1.202         -6.447          37.42          177.4          22.77          101.6
    0.1144              -28.31          37.11           72.1          37.41         -5.737         0.8733         -4.666          35.99          177.1          23.95          101.7
     0.117              -27.68          36.75          72.51          37.93         -5.779         0.4522          -2.38          34.15          176.8          25.46          101.8
    0.1196              -26.88          36.27          73.03          38.59         -5.832       -0.08583          0.539          31.79          176.5           27.4          102.0
    0.1222              -25.87          35.68          73.69          39.41         -5.899        -0.7623           4.21          28.83          176.0          29.83          102.2
    0.1248              -24.65          34.96          74.49          40.42          -5.98         -1.587          8.683          25.23          175.4          32.79          102.5
    0.1274              -23.22          34.12          75.41          41.59         -6.075         -2.542          13.87          21.05          174.8          36.23          102.8
      0.13              -21.68          33.22          76.42          42.86         -6.177         -3.577          19.48          16.52          174.1          39.95          103.2
    0.1326              -20.14          32.31          77.42          44.13         -6.279         -4.611           25.1           12.0          173.4          43.67          103.5
    0.1352              -18.71          31.48          78.34           45.3         -6.374         -5.567          30.28          7.819          172.7           47.1          103.9
    0.1378              -17.48          30.76          79.14          46.31         -6.455         -6.391          34.76          4.213          172.2          50.07          104.2
